<?xml version="1.0" standalone="no"?>
<!DOCTYPE svg PUBLIC "-//W3C//DTD SVG 20010904//EN"
 "http://www.w3.org/TR/2001/REC-SVG-20010904/DTD/svg10.dtd">
<svg version="1.0" xmlns="http://www.w3.org/2000/svg"
 width="512.000000pt" height="512.000000pt" viewBox="0 0 512.000000 512.000000"
 preserveAspectRatio="xMidYMid meet">
<metadata>
Created by potrace 1.16, written by Peter Selinger 2001-2019
</metadata>
<g transform="translate(0.000000,512.000000) scale(0.100000,-0.100000)"
fill="#000000" stroke="none">
<path d="M1357 3995 c55 -60 118 -126 139 -145 21 -19 -17 24 -84 96 -67 72
-130 138 -139 145 -10 8 28 -35 84 -96z"/>
<path d="M3098 4054 c-29 -35 -38 -56 -38 -84 0 -20 -7 -59 -15 -85 -8 -27
-13 -50 -12 -52 2 -1 20 27 41 63 21 36 45 72 53 79 10 10 13 32 11 70 l-3 55
-37 -46z"/>
<path d="M3962 4069 c2 -6 8 -10 13 -10 5 0 11 4 13 10 2 6 -4 11 -13 11 -9 0
-15 -5 -13 -11z"/>
<path d="M1741 4002 c-7 -14 -21 -22 -38 -22 -24 0 -25 -1 -10 -18 10 -11 14
-26 10 -41 -5 -21 -4 -22 13 -13 15 9 21 7 31 -11 l12 -22 1 24 c0 20 4 22 26
17 22 -6 25 -4 20 10 -3 9 -2 22 4 29 8 9 5 14 -13 19 -13 3 -28 16 -34 28
l-10 23 -12 -23z"/>
<path d="M4140 3980 c0 -5 5 -10 10 -10 6 0 10 5 10 10 0 6 -4 10 -10 10 -5 0
-10 -4 -10 -10z"/>
<path d="M2127 3936 c-9 -13 -26 -27 -37 -31 -19 -6 -18 -8 9 -31 16 -13 34
-24 40 -24 14 0 14 30 1 50 -7 12 -10 8 -10 -14 0 -29 0 -29 -20 -11 l-21 19
26 15 c14 9 25 20 25 26 0 5 4 3 10 -5 5 -8 11 -12 14 -10 2 3 -1 13 -9 23
-12 16 -13 16 -28 -7z"/>
<path d="M3310 3910 c0 -5 5 -10 10 -10 6 0 10 5 10 10 0 6 -4 10 -10 10 -5 0
-10 -4 -10 -10z"/>
<path d="M2150 3901 c0 -5 9 -7 20 -4 11 3 20 7 20 9 0 2 -9 4 -20 4 -11 0
-20 -4 -20 -9z"/>
<path d="M3788 3828 c-64 -76 -123 -158 -143 -198 l-17 -35 32 30 c79 74 193
235 177 251 -2 3 -24 -19 -49 -48z"/>
<path d="M2330 3835 c0 -8 7 -15 15 -15 8 0 15 7 15 15 0 8 -7 15 -15 15 -8 0
-15 -7 -15 -15z"/>
<path d="M2130 3831 c0 -5 5 -13 10 -16 6 -3 10 -2 10 4 0 5 -4 13 -10 16 -5
3 -10 2 -10 -4z"/>
<path d="M3165 3830 c-3 -5 -1 -10 4 -10 6 0 11 5 11 10 0 6 -2 10 -4 10 -3 0
-8 -4 -11 -10z"/>
<path d="M1947 3804 c-5 -5 91 -144 100 -144 5 0 -28 48 -69 102 -20 25 -25
38 -16 41 7 3 8 6 2 6 -6 1 -13 -2 -17 -5z"/>
<path d="M3825 3801 c-6 -11 9 -23 19 -14 9 9 7 23 -3 23 -6 0 -12 -4 -16 -9z"/>
<path d="M1212 3727 c82 -63 588 -400 588 -393 0 10 -435 314 -566 396 -120
75 -124 74 -22 -3z"/>
<path d="M1570 3670 l0 -110 45 22 c43 21 46 21 98 5 77 -24 81 -22 36 21
l-40 37 26 37 c14 20 25 39 25 42 0 4 -26 6 -58 6 -45 0 -65 5 -95 25 l-37 26
0 -111z"/>
<path d="M3447 3764 c-4 -4 -7 -16 -7 -26 0 -14 6 -19 23 -16 14 2 22 10 22
23 0 20 -25 32 -38 19z"/>
<path d="M2686 3658 c-4 -51 -16 -151 -27 -223 -11 -71 -25 -164 -30 -205 -12
-101 -14 -104 -41 -89 -20 10 -19 7 6 -20 17 -17 33 -31 37 -31 9 0 36 183 48
330 15 174 24 330 19 330 -3 0 -8 -42 -12 -92z"/>
<path d="M2541 3703 c-1 -22 -6 -33 -16 -33 -8 0 -15 -4 -15 -10 0 -5 5 -10
10 -10 6 0 14 -9 18 -19 6 -17 9 -17 33 10 22 24 24 29 9 29 -11 0 -21 12 -28
33 l-10 32 -1 -32z"/>
<path d="M2887 3700 c-13 -16 -14 -20 -3 -20 8 0 17 -6 19 -12 3 -7 6 2 6 20
1 38 1 38 -22 12z"/>
<path d="M3910 3700 c0 -15 5 -20 18 -18 9 2 17 10 17 18 0 8 -8 16 -17 18
-13 2 -18 -3 -18 -18z"/>
<path d="M1890 3692 c0 -12 50 -78 105 -137 61 -66 41 -26 -35 69 -59 74 -70
85 -70 68z"/>
<path d="M2271 3663 c-1 -33 -5 -43 -21 -48 -27 -8 -25 -19 5 -33 13 -6 27
-23 31 -37 8 -31 28 -28 32 6 2 13 15 34 30 46 l27 23 -33 0 c-29 0 -35 5 -52
43 l-19 42 0 -42z"/>
<path d="M3266 3676 c-9 -14 -26 -35 -38 -47 -13 -12 -17 -19 -11 -15 9 5 11
2 7 -8 -3 -9 -10 -14 -14 -11 -7 4 -256 -253 -322 -333 -31 -37 -38 -40 -38
-11 0 11 -4 18 -9 15 -10 -7 -131 -309 -131 -328 1 -23 19 16 54 119 19 54 44
118 54 142 l20 44 11 -39 c5 -21 18 -70 27 -109 24 -100 40 -128 67 -119 38
11 158 65 260 115 53 27 97 48 97 46 0 -2 -66 -63 -147 -135 -82 -71 -158
-141 -170 -154 l-22 -23 25 -99 c13 -55 23 -101 21 -102 -1 -1 -42 24 -91 56
-102 67 -83 68 -215 -14 -41 -25 -76 -44 -78 -43 -2 2 15 47 36 100 l39 96
-70 39 c-76 42 -75 46 12 58 28 4 52 10 55 14 2 4 -36 1 -86 -7 l-91 -15 -151
88 c-84 48 -186 108 -227 135 -41 26 -76 46 -78 45 -1 -2 25 -57 59 -122 55
-108 57 -122 6 -53 -20 26 0 -12 78 -153 45 -81 65 -102 79 -79 3 5 -1 30 -9
57 -8 26 -13 50 -11 52 2 2 18 -23 35 -54 25 -46 29 -60 19 -70 -7 -6 -58 -29
-113 -52 -266 -109 -472 -195 -495 -207 l-25 -13 25 -6 c24 -6 243 -30 365
-41 33 -3 86 -11 118 -18 l59 -11 -7 -46 c-4 -25 -24 -111 -44 -192 -21 -82
-34 -148 -30 -148 10 0 118 424 119 466 0 7 -68 15 -192 23 -106 7 -206 13
-223 14 l-30 2 35 17 c19 9 129 57 244 106 115 50 213 95 218 100 11 11 -3 43
-60 134 -19 32 -39 55 -45 51 -6 -3 -7 -1 -3 5 7 12 -66 134 -108 181 l-21 25
32 -23 c18 -12 107 -66 200 -121 130 -77 163 -100 148 -105 -11 -4 -26 -9 -34
-11 -8 -3 7 -22 40 -52 30 -26 71 -63 91 -82 l38 -35 -49 -115 c-42 -97 -47
-116 -33 -119 9 -2 71 25 138 59 109 55 124 61 145 50 13 -7 77 -44 142 -82
65 -38 120 -68 123 -66 2 3 -12 67 -31 144 l-34 139 43 55 c23 30 73 96 111
145 37 50 97 125 133 168 35 43 62 80 59 84 -4 3 -92 -35 -197 -86 -187 -89
-264 -120 -229 -90 21 18 141 249 259 497 84 179 107 240 66 178z m-198 -377
c-79 -156 -144 -286 -146 -289 -7 -10 -22 28 -41 107 l-21 83 82 94 c218 248
262 296 265 292 2 -1 -61 -131 -139 -287z"/>
<path d="M3780 3615 c0 -9 5 -15 11 -13 6 2 11 8 11 13 0 5 -5 11 -11 13 -6 2
-11 -4 -11 -13z"/>
<path d="M3853 3469 c-453 -439 -553 -541 -495 -510 30 16 677 658 670 666 -3
3 -82 -67 -175 -156z"/>
<path d="M3457 3584 c-10 -14 -32 -27 -48 -31 -29 -5 -29 -6 -13 -30 22 -34
14 -56 -56 -153 -33 -46 -58 -86 -55 -88 3 -3 40 29 84 71 64 63 85 77 120 83
23 4 43 10 46 14 2 4 -9 17 -25 28 -25 19 -29 30 -32 76 l-3 54 -18 -24z"/>
<path d="M2880 3563 c0 -12 -6 -26 -14 -30 -12 -7 -12 -11 2 -28 17 -20 17
-20 38 1 l20 21 -23 29 c-22 27 -23 28 -23 7z"/>
<path d="M4300 3563 c-30 -21 -271 -211 -285 -226 -48 -49 167 112 290 217 34
29 31 34 -5 9z"/>
<path d="M775 3560 c17 -27 265 -179 448 -274 115 -59 234 -124 265 -144 l57
-36 -48 -12 c-27 -7 -51 -14 -53 -17 -2 -2 32 -27 77 -56 78 -49 106 -59 79
-26 -6 8 -35 28 -63 44 l-52 30 28 10 c16 6 34 11 41 11 51 0 -21 49 -256 173
-131 70 -192 112 -183 128 5 7 -322 179 -340 179 -4 0 -3 -4 0 -10z"/>
<path d="M3681 3468 c-54 -58 -86 -98 -78 -98 7 0 140 150 136 153 -2 2 -28
-23 -58 -55z"/>
<path d="M1296 3497 c-3 -14 -15 -29 -26 -32 -16 -5 -19 -12 -13 -33 3 -15 16
-34 27 -44 20 -16 22 -16 35 2 7 11 20 20 27 20 8 0 14 6 14 14 0 8 3 21 6 30
4 11 0 16 -15 16 -12 0 -26 11 -34 26 l-14 27 -7 -26z"/>
<path d="M2100 3485 c0 -4 11 -23 24 -40 26 -33 21 -54 -13 -56 -10 0 -11 -2
-4 -5 7 -3 22 0 34 6 19 10 26 7 61 -27 l40 -38 -22 43 c-20 40 -20 45 -5 62
15 16 13 18 -30 22 -25 3 -55 14 -65 23 -11 10 -20 14 -20 10z"/>
<path d="M4433 3417 c-56 -34 -100 -63 -98 -65 2 -2 46 21 97 52 112 67 126
76 113 75 -5 0 -56 -28 -112 -62z"/>
<path d="M2540 3460 c0 -5 5 -10 10 -10 6 0 10 5 10 10 0 6 -4 10 -10 10 -5 0
-10 -4 -10 -10z"/>
<path d="M2407 3390 c-21 -46 -12 -75 26 -82 19 -4 26 2 36 24 12 26 11 32
-10 56 -13 15 -26 30 -29 34 -3 3 -13 -11 -23 -32z"/>
<path d="M2738 3425 c-7 -11 8 -164 17 -173 7 -7 4 116 -4 153 -3 17 -9 25
-13 20z"/>
<path d="M1126 3381 c13 -13 484 -254 484 -248 0 6 -476 257 -487 257 -4 0 -3
-4 3 -9z"/>
<path d="M2590 3370 c0 -5 7 -10 15 -10 8 0 15 5 15 10 0 6 -7 10 -15 10 -8 0
-15 -4 -15 -10z"/>
<path d="M696 3363 c-12 -12 -6 -33 9 -33 8 0 15 6 15 14 0 17 -14 28 -24 19z"/>
<path d="M2140 3366 c0 -2 7 -9 15 -16 9 -7 15 -8 15 -2 0 5 -7 12 -15 16 -8
3 -15 4 -15 2z"/>
<path d="M3215 3350 c-3 -5 -2 -10 4 -10 5 0 13 5 16 10 3 6 2 10 -4 10 -5 0
-13 -4 -16 -10z"/>
<path d="M3510 3344 c0 -8 5 -12 10 -9 6 3 10 10 10 16 0 5 -4 9 -10 9 -5 0
-10 -7 -10 -16z"/>
<path d="M1810 3326 c0 -2 14 -14 30 -26 17 -12 30 -19 30 -16 0 2 -13 14 -30
26 -16 12 -30 19 -30 16z"/>
<path d="M3395 3290 c-3 -5 -2 -10 4 -10 5 0 13 5 16 10 3 6 2 10 -4 10 -5 0
-13 -4 -16 -10z"/>
<path d="M3936 3282 c-4 -12 -19 -25 -32 -28 -18 -5 -22 -10 -15 -17 6 -6 11
-19 11 -28 0 -12 10 -18 35 -21 27 -3 35 0 35 12 0 9 5 21 12 28 9 9 8 15 -4
24 -8 7 -20 22 -26 32 -9 19 -10 18 -16 -2z"/>
<path d="M2341 3224 c1 -79 7 -114 20 -114 5 0 9 14 9 32 l0 32 38 -37 c53
-51 66 -47 15 6 -39 39 -70 94 -59 104 2 3 40 -19 83 -48 89 -60 80 -39 -10
25 -33 22 -68 47 -79 55 -18 13 -19 11 -17 -55z"/>
<path d="M1880 3276 c0 -2 8 -10 18 -17 15 -13 16 -12 3 4 -13 16 -21 21 -21
13z"/>
<path d="M2510 3250 c0 -5 5 -10 10 -10 6 0 10 5 10 10 0 6 -4 10 -10 10 -5 0
-10 -4 -10 -10z"/>
<path d="M3477 3253 c-12 -11 -8 -23 8 -23 8 0 15 7 15 15 0 16 -12 20 -23 8z"/>
<path d="M4335 3186 c-99 -40 -268 -105 -375 -146 -530 -199 -770 -296 -770
-311 0 -11 96 24 315 113 196 80 524 211 805 322 181 70 240 97 215 95 -5 0
-91 -33 -190 -73z"/>
<path d="M1920 3246 c0 -2 8 -10 18 -17 15 -13 16 -12 3 4 -13 16 -21 21 -21
13z"/>
<path d="M1726 3214 c-11 -29 -6 -41 17 -39 14 1 22 8 22 21 1 32 -29 45 -39
18z"/>
<path d="M3730 3190 c0 -5 5 -10 10 -10 6 0 10 5 10 10 0 6 -4 10 -10 10 -5 0
-10 -4 -10 -10z"/>
<path d="M880 3160 c-9 -6 -10 -10 -3 -10 6 0 15 5 18 10 8 12 4 12 -15 0z"/>
<path d="M912 3152 c-17 -11 60 -35 84 -25 12 5 15 3 9 -6 -6 -10 -2 -11 15
-6 15 5 20 4 16 -4 -4 -6 0 -11 8 -11 9 0 16 4 16 9 0 14 -94 42 -115 35 -13
-5 -16 -4 -11 4 8 14 -3 15 -22 4z"/>
<path d="M2255 3147 c42 -20 88 -30 81 -19 -3 6 -22 13 -42 16 -19 4 -43 9
-52 12 -9 2 -3 -2 13 -9z"/>
<path d="M2750 3145 c0 -8 4 -15 10 -15 5 0 7 7 4 15 -4 8 -8 15 -10 15 -2 0
-4 -7 -4 -15z"/>
<path d="M1070 3100 c0 -5 5 -10 10 -10 6 0 10 5 10 10 0 6 -4 10 -10 10 -5 0
-10 -4 -10 -10z"/>
<path d="M1840 3085 c0 -9 5 -15 11 -13 6 2 11 8 11 13 0 5 -5 11 -11 13 -6 2
-11 -4 -11 -13z"/>
<path d="M1750 3066 c0 -2 8 -10 18 -17 15 -13 16 -12 3 4 -13 16 -21 21 -21
13z"/>
<path d="M1884 3045 c-4 -10 -1 -21 7 -26 20 -12 34 -5 34 17 0 24 -33 31 -41
9z"/>
<path d="M3935 2892 c-181 -92 -379 -197 -439 -232 l-110 -64 80 -74 c43 -41
114 -106 158 -144 43 -39 70 -68 60 -64 -195 60 -497 146 -515 146 -18 0 -5
-122 26 -250 33 -132 87 -236 251 -480 68 -102 124 -195 124 -205 0 -15 19
-29 71 -53 39 -19 73 -32 75 -30 8 8 -54 94 -105 148 l-53 55 49 -60 c88 -107
102 -134 56 -109 -16 8 -40 19 -55 24 -19 6 -28 17 -28 31 0 11 -67 132 -149
267 -179 297 -204 346 -225 439 -24 110 -25 109 37 110 28 0 56 -2 62 -5 5 -3
21 -7 35 -9 23 -2 432 -97 472 -109 35 -10 7 24 -70 88 -108 88 -272 238 -272
247 0 5 35 30 78 56 291 181 425 263 557 340 135 79 178 106 165 105 -3 0
-153 -76 -335 -168z"/>
<path d="M1874 2952 c58 -60 86 -97 82 -107 -4 -11 1 -15 19 -15 13 0 26 4 29
9 4 5 -45 53 -106 107 l-113 97 89 -91z"/>
<path d="M3643 3030 c-13 -5 -23 -14 -23 -19 0 -12 57 6 66 20 7 11 -14 11
-43 -1z"/>
<path d="M1975 2980 c-3 -5 -1 -10 4 -10 6 0 11 5 11 10 0 6 -2 10 -4 10 -3 0
-8 -4 -11 -10z"/>
<path d="M3265 2980 c-3 -5 1 -10 9 -10 9 0 16 5 16 10 0 6 -4 10 -9 10 -6 0
-13 -4 -16 -10z"/>
<path d="M3328 2901 c-42 -9 -79 -19 -83 -22 -8 -9 134 17 165 30 35 14 7 11
-82 -8z"/>
<path d="M1145 2879 c109 -29 495 -115 645 -143 208 -39 283 -46 332 -32 37
11 39 13 17 18 -13 3 -49 6 -79 7 -80 2 -263 33 -628 106 -324 65 -418 80
-287 44z"/>
<path d="M1815 2830 c-4 -6 -3 -16 3 -22 6 -6 12 -6 17 2 4 6 3 16 -3 22 -6 6
-12 6 -17 -2z"/>
<path d="M4065 2769 c-4 -19 -15 -33 -26 -36 -20 -6 -25 -18 -10 -28 5 -3 12
-19 16 -35 6 -26 9 -29 26 -19 11 6 33 7 50 4 28 -6 29 -5 29 29 0 19 5 38 10
41 21 13 9 24 -19 19 -25 -5 -32 -2 -45 25 -9 17 -18 31 -20 31 -3 0 -7 -14
-11 -31z"/>
<path d="M1063 2680 c-55 -42 -86 -49 -153 -31 l-35 10 25 -17 c14 -9 38 -29
55 -44 l30 -27 -18 -32 -17 -31 22 6 c56 16 79 18 92 7 11 -9 15 0 20 49 4 34
16 81 26 105 11 25 16 45 12 45 -4 0 -30 -18 -59 -40z"/>
<path d="M3910 2675 c0 -9 5 -15 11 -13 6 2 11 8 11 13 0 5 -5 11 -11 13 -6 2
-11 -4 -11 -13z"/>
<path d="M1370 2670 c0 -5 5 -10 10 -10 6 0 10 5 10 10 0 6 -4 10 -10 10 -5 0
-10 -4 -10 -10z"/>
<path d="M1680 2570 c0 -5 7 -10 15 -10 8 0 15 5 15 10 0 6 -7 10 -15 10 -8 0
-15 -4 -15 -10z"/>
<path d="M4408 2553 c7 -3 16 -2 19 1 4 3 -2 6 -13 5 -11 0 -14 -3 -6 -6z"/>
<path d="M3805 2540 c-3 -6 1 -7 9 -4 18 7 21 14 7 14 -6 0 -13 -4 -16 -10z"/>
<path d="M3978 2543 c7 -3 16 -2 19 1 4 3 -2 6 -13 5 -11 0 -14 -3 -6 -6z"/>
<path d="M4130 2533 c-80 -7 -174 -12 -210 -9 -36 2 -94 -2 -130 -9 l-65 -13
72 -1 c65 -1 526 34 563 43 35 8 -96 2 -230 -11z m-263 -19 c-3 -3 -12 -4 -19
-1 -8 3 -5 6 6 6 11 1 17 -2 13 -5z"/>
<path d="M1643 2533 c9 -2 23 -2 30 0 6 3 -1 5 -18 5 -16 0 -22 -2 -12 -5z"/>
<path d="M3913 2533 c9 -2 23 -2 30 0 6 3 -1 5 -18 5 -16 0 -22 -2 -12 -5z"/>
<path d="M1470 2515 c-47 -7 -69 -13 -50 -13 19 0 73 5 120 12 47 8 69 13 50
13 -19 0 -73 -5 -120 -12z"/>
<path d="M2674 2422 c-38 -26 -123 -88 -189 -137 -66 -50 -144 -107 -172 -128
l-53 -38 14 38 c8 21 28 73 45 117 18 43 30 80 28 83 -5 4 -118 -258 -132
-305 -8 -28 14 -38 47 -21 l23 12 -21 -24 c-33 -37 -179 -259 -170 -259 6 0
158 207 189 256 19 30 88 87 262 214 181 133 234 177 229 189 -3 9 -9 24 -11
34 -3 9 -9 17 -12 17 -4 0 -39 -22 -77 -48z"/>
<path d="M600 2430 c0 -5 5 -10 10 -10 6 0 10 5 10 10 0 6 -4 10 -10 10 -5 0
-10 -4 -10 -10z"/>
<path d="M2940 2402 c0 -32 107 -371 122 -387 17 -17 0 49 -59 228 -48 148
-63 186 -63 159z"/>
<path d="M3930 2381 c0 -11 4 -22 8 -25 14 -9 35 12 29 28 -9 23 -37 20 -37
-3z"/>
<path d="M1745 2299 c-143 -32 -267 -59 -277 -59 -9 0 -27 13 -41 30 l-25 29
-7 -26 c-3 -15 -15 -38 -25 -53 l-18 -26 43 -15 c40 -15 44 -15 48 1 7 28 62
46 299 99 245 56 329 79 288 79 -14 0 -142 -26 -285 -59z"/>
<path d="M1205 2330 c-3 -5 -13 -6 -22 -3 -13 5 -15 2 -10 -11 4 -10 7 -23 7
-29 0 -8 3 -8 11 0 6 6 17 9 23 7 6 -2 11 6 11 21 0 25 -9 33 -20 15z"/>
<path d="M1418 2333 c6 -2 18 -2 25 0 6 3 1 5 -13 5 -14 0 -19 -2 -12 -5z"/>
<path d="M1368 2323 c6 -2 18 -2 25 0 6 3 1 5 -13 5 -14 0 -19 -2 -12 -5z"/>
<path d="M1020 2310 c0 -5 7 -10 16 -10 8 0 12 5 9 10 -3 6 -10 10 -16 10 -5
0 -9 -4 -9 -10z"/>
<path d="M1967 2168 c-68 -68 -139 -143 -158 -168 l-34 -45 35 23 c19 12 77
48 128 79 51 31 91 58 88 60 -2 3 -14 -1 -26 -7 -11 -6 -28 -10 -36 -8 -10 2
7 27 52 78 63 72 91 110 79 110 -3 0 -61 -55 -128 -122z"/>
<path d="M3260 2270 c0 -5 10 -14 22 -21 18 -10 20 -9 15 5 -9 24 5 20 54 -15
79 -57 109 -90 99 -110 -6 -10 -10 -26 -10 -35 0 -14 3 -15 12 -6 15 15 53 15
80 1 32 -17 31 -5 -6 49 -25 37 -37 47 -45 39 -8 -8 -31 3 -87 43 -71 49 -134
73 -134 50z"/>
<path d="M4075 2240 c3 -5 8 -10 11 -10 2 0 4 5 4 10 0 6 -5 10 -11 10 -5 0
-7 -4 -4 -10z"/>
<path d="M1800 2185 c6 -7 8 -19 5 -27 -5 -12 0 -14 18 -11 16 3 27 13 29 26
4 19 -1 22 -29 23 -24 0 -30 -3 -23 -11z"/>
<path d="M2602 2093 c-412 -376 -716 -684 -812 -823 l-25 -35 37 30 c20 17
177 163 350 325 383 360 552 510 576 510 20 0 142 -119 142 -139 0 -41 660
-1025 676 -1008 2 2 -9 33 -25 68 -25 56 -77 212 -271 812 -23 71 -44 127 -46
124 -7 -7 55 -211 161 -526 53 -156 94 -285 92 -287 -2 -2 -37 45 -77 104 -41
59 -119 170 -175 247 -55 77 -109 154 -119 170 -10 17 -44 65 -75 109 -31 43
-56 81 -56 85 0 3 -15 21 -33 40 -17 19 -29 37 -26 40 3 3 17 -7 30 -24 13
-16 24 -26 24 -20 0 5 33 -22 73 -61 64 -63 148 -134 158 -134 4 0 3 46 0 69
-2 12 -442 431 -453 431 -4 0 -61 -48 -126 -107z"/>
<path d="M1549 2086 c-142 -75 -521 -287 -550 -309 -46 -33 228 106 421 214
179 101 255 148 239 149 -4 0 -53 -24 -110 -54z"/>
<path d="M3930 2110 c8 -5 20 -10 25 -10 6 0 3 5 -5 10 -8 5 -19 10 -25 10 -5
0 -3 -5 5 -10z"/>
<path d="M3993 2085 c38 -22 239 -106 244 -102 3 4 -215 101 -253 112 -10 4
-6 -1 9 -10z"/>
<path d="M3171 2044 c0 -11 3 -14 6 -6 3 7 2 16 -1 19 -3 4 -6 -2 -5 -13z"/>
<path d="M3736 2024 c-8 -21 -9 -20 20 -39 17 -11 24 -12 18 -4 -5 8 -7 21 -6
30 4 22 -25 32 -32 13z"/>
<path d="M3390 2007 c0 -7 306 -284 465 -422 88 -76 171 -148 184 -159 13 -12
21 -16 18 -10 -4 7 -53 51 -109 100 -166 143 -264 231 -410 366 -124 115 -148
136 -148 125z"/>
<path d="M1000 1970 c0 -5 5 -10 11 -10 5 0 7 5 4 10 -3 6 -8 10 -11 10 -2 0
-4 -4 -4 -10z"/>
<path d="M3145 1955 c21 -94 61 -224 78 -250 l19 -30 -6 40 -6 40 14 -30 c8
-16 15 -25 15 -18 2 22 -22 62 -32 56 -6 -4 -8 0 -4 9 3 9 2 19 -2 24 -5 5
-21 45 -36 89 -30 84 -51 122 -40 70z"/>
<path d="M1495 1960 c-4 -6 -3 -16 3 -22 6 -6 12 -6 17 2 4 6 3 16 -3 22 -6 6
-12 6 -17 -2z"/>
<path d="M3568 1954 c17 -31 131 -139 139 -131 8 8 -52 73 -111 120 -27 22
-36 25 -28 11z"/>
<path d="M1630 1945 c0 -9 5 -15 11 -13 6 2 11 8 11 13 0 5 -5 11 -11 13 -6 2
-11 -4 -11 -13z"/>
<path d="M2620 1860 c-18 -56 -30 -103 -28 -105 2 -3 19 41 37 96 18 55 30
103 28 106 -3 3 -20 -41 -37 -97z"/>
<path d="M2752 1930 c0 -19 2 -27 5 -17 2 9 2 25 0 35 -3 9 -5 1 -5 -18z"/>
<path d="M3900 1950 c0 -5 5 -10 10 -10 6 0 10 5 10 10 0 6 -4 10 -10 10 -5 0
-10 -4 -10 -10z"/>
<path d="M1673 1858 c-19 -18 -46 -33 -68 -37 l-37 -6 21 -27 c28 -35 27 -46
-11 -85 -37 -38 -28 -41 42 -13 l51 20 15 -37 c8 -21 18 -47 23 -58 6 -15 11
-5 19 44 6 35 13 65 14 66 2 1 18 10 36 21 l32 20 -31 23 -31 23 -23 -28 c-26
-32 -51 -28 -61 11 -5 21 0 33 22 56 38 39 26 46 -13 7z"/>
<path d="M2520 1864 c0 -8 5 -12 10 -9 6 3 10 10 10 16 0 5 -4 9 -10 9 -5 0
-10 -7 -10 -16z"/>
<path d="M2761 1825 c-1 -89 26 -410 41 -485 l12 -65 8 70 c13 105 -6 305 -27
305 -9 0 -15 31 -20 108 -8 125 -13 152 -14 67z"/>
<path d="M1880 1812 c0 -5 6 -16 13 -26 12 -16 14 -15 36 8 l24 26 -36 0 c-20
0 -37 -4 -37 -8z"/>
<path d="M2408 1755 c-33 -39 -35 -51 -8 -51 14 0 18 5 15 17 -3 10 -1 20 5
24 13 8 33 45 23 44 -4 0 -20 -15 -35 -34z"/>
<path d="M4200 1765 c0 -8 7 -15 15 -15 8 0 15 7 15 15 0 8 -7 15 -15 15 -8 0
-15 -7 -15 -15z"/>
<path d="M2896 1713 c-9 -23 3 -35 20 -19 18 18 18 22 0 29 -8 3 -17 -1 -20
-10z"/>
<path d="M3952 1707 c-18 -10 -20 -15 -10 -25 10 -10 10 -17 0 -32 -15 -25
-16 -38 0 -22 7 7 21 12 33 12 19 1 19 1 3 14 -21 15 -23 37 -6 54 15 15 9 15
-20 -1z"/>
<path d="M2587 1680 c-10 -16 -34 -42 -53 -57 l-36 -27 26 -13 c14 -7 29 -25
32 -38 6 -25 6 -25 34 13 15 21 40 46 56 56 28 19 28 19 6 27 -13 5 -28 22
-35 39 l-13 29 -17 -29z"/>
<path d="M3892 1690 c13 -20 28 -27 28 -12 0 10 -22 32 -32 32 -5 0 -3 -9 4
-20z"/>
<path d="M2216 1534 c-9 -24 -8 -26 14 -14 11 6 18 15 15 21 -9 14 -22 11 -29
-7z"/>
<path d="M3000 1524 c0 -9 5 -14 12 -12 18 6 21 28 4 28 -9 0 -16 -7 -16 -16z"/>
<path d="M2656 1483 c-10 -14 -32 -31 -48 -37 l-29 -13 25 -17 c16 -10 26 -26
26 -41 0 -31 5 -31 42 0 16 14 38 25 49 25 23 0 25 15 4 24 -9 3 -24 23 -33
44 l-17 39 -19 -24z"/>
<path d="M2283 1471 c-31 -29 -31 -30 -18 -73 l13 -43 15 35 c14 33 31 110 25
110 -2 0 -17 -14 -35 -29z"/>
<path d="M1577 1313 c-66 -118 -93 -171 -79 -158 18 18 145 245 140 251 -3 2
-30 -39 -61 -93z"/>
<path d="M3900 1340 c0 -5 5 -10 10 -10 6 0 10 5 10 10 0 6 -4 10 -10 10 -5 0
-10 -4 -10 -10z"/>
<path d="M3071 1314 c0 -11 3 -14 6 -6 3 7 2 16 -1 19 -3 4 -6 -2 -5 -13z"/>
<path d="M3081 1280 c0 -8 4 -24 9 -35 5 -13 9 -14 9 -5 0 8 -4 24 -9 35 -5
13 -9 14 -9 5z"/>
<path d="M3140 1280 c0 -5 5 -10 10 -10 6 0 10 5 10 10 0 6 -4 10 -10 10 -5 0
-10 -4 -10 -10z"/>
<path d="M2445 1241 c-6 -11 9 -23 19 -14 9 9 7 23 -3 23 -6 0 -12 -4 -16 -9z"/>
<path d="M3101 1204 c0 -11 3 -14 6 -6 3 7 2 16 -1 19 -3 4 -6 -2 -5 -13z"/>
<path d="M1800 1195 c0 -8 7 -15 15 -15 8 0 15 7 15 15 0 8 -7 15 -15 15 -8 0
-15 -7 -15 -15z"/>
<path d="M2890 1195 c0 -9 5 -15 11 -13 6 2 11 8 11 13 0 5 -5 11 -11 13 -6 2
-11 -4 -11 -13z"/>
</g>
</svg>